<?xml version="1.0" standalone="no"?>
<!DOCTYPE svg PUBLIC "-//W3C//DTD SVG 20010904//EN"
 "http://www.w3.org/TR/2001/REC-SVG-20010904/DTD/svg10.dtd">
<svg version="1.0" xmlns="http://www.w3.org/2000/svg"
 width="500.000000pt" height="286.000000pt" viewBox="0 0 500.000000 286.000000"
 preserveAspectRatio="xMidYMid meet">

<g transform="translate(0.000000,286.000000) scale(0.100000,-0.100000)"
fill="#000000" stroke="none">
<path d="M0 2188 l1 -673 29 35 c16 19 30 38 30 41 0 16 117 83 140 80 39 -5
95 -37 114 -66 25 -37 54 -65 69 -65 6 0 3 7 -8 16 -11 8 -19 16 -17 17 9 5
-12 57 -23 57 -7 0 -18 15 -26 33 -7 17 -16 34 -20 37 -15 10 -14 45 1 45 8 0
17 11 18 24 2 14 0 21 -7 17 -5 -4 -8 -14 -5 -24 3 -9 -2 -6 -11 8 -9 14 -14
17 -11 8 3 -10 1 -20 -4 -23 -16 -10 -2 47 16 63 17 16 17 16 5 -1 -8 -9 -11
-20 -7 -24 3 -4 13 2 21 13 11 14 14 15 9 3 -3 -10 0 -20 7 -25 7 -4 10 -3 5
4 -3 6 -1 14 5 18 8 5 9 3 4 -6 -6 -10 -4 -12 10 -6 15 5 16 4 6 -8 -16 -19 3
-30 29 -16 25 13 26 22 3 13 -15 -5 -16 -3 -6 7 18 19 46 -7 40 -37 -2 -12 -1
-24 2 -25 3 -2 14 -21 24 -42 l18 -39 32 29 c100 90 107 98 107 129 1 89 29
105 136 77 l77 -20 82 78 c94 90 191 156 253 173 28 7 42 17 42 28 0 14 16 16
125 17 84 0 127 -4 134 -12 12 -14 49 -14 78 2 12 7 37 12 57 12 40 0 76 -36
76 -76 0 -20 -5 -24 -30 -24 -18 0 -30 -5 -30 -13 0 -9 10 -12 30 -9 17 2 30
0 30 -5 0 -15 -45 -53 -62 -53 -25 0 -77 -84 -85 -138 -7 -43 -12 -49 -52 -69
-29 -15 -53 -20 -70 -17 -34 8 -60 32 -45 42 6 4 13 15 17 25 3 9 16 17 27 17
12 0 30 5 40 10 17 9 18 14 8 38 -6 15 -14 43 -17 62 -7 39 -53 73 -59 45 -2
-9 -15 -15 -31 -15 -23 0 -29 -6 -39 -37 -7 -23 -8 -42 -2 -54 14 -26 12 -55
-5 -69 -8 -7 -13 -16 -10 -20 2 -4 -9 -17 -26 -29 -33 -25 -50 -58 -54 -111
-2 -19 -6 -49 -10 -66 -5 -21 -2 -34 8 -42 17 -15 399 -26 772 -23 208 2 261
5 317 21 37 10 76 16 87 13 37 -10 71 5 71 31 0 13 7 30 16 37 14 11 20 10 39
-14 15 -16 25 -22 28 -14 2 7 11 -2 20 -20 9 -17 25 -34 34 -36 10 -3 101 -6
203 -8 169 -3 223 -3 348 0 24 1 41 5 38 10 -4 5 13 16 36 23 52 18 61 50 14
53 -15 0 -36 10 -45 21 -9 12 -30 27 -46 35 -25 13 -30 20 -27 48 2 35 -27 70
-59 71 -9 0 -22 7 -29 15 -7 8 -21 15 -31 15 -11 0 -37 11 -59 25 -22 14 -43
25 -46 25 -4 0 -29 23 -56 50 -27 28 -55 50 -62 50 -23 0 -80 69 -82 100 -1
17 2 33 7 36 5 3 9 14 9 25 0 10 7 19 15 19 9 0 15 9 15 25 0 20 5 25 25 25
20 0 25 -5 25 -25 0 -18 5 -25 20 -25 11 0 20 -7 20 -15 0 -8 -9 -15 -20 -15
-11 0 -20 -5 -20 -12 0 -6 3 -9 6 -5 3 3 17 2 30 -3 22 -9 24 -7 24 20 0 27 3
30 30 30 28 0 30 -3 30 -34 0 -26 5 -36 21 -41 28 -9 38 3 16 19 -21 16 -22
26 -2 26 8 0 15 7 15 15 0 9 9 15 24 15 17 0 26 -7 32 -27 4 -16 6 -32 5 -36
-1 -5 3 -6 9 -2 5 3 10 12 10 19 0 45 101 64 136 25 l19 -21 -49 3 c-65 5 -70
-13 -9 -32 30 -9 52 -22 59 -36 11 -23 53 -58 109 -90 35 -21 142 -127 210
-209 83 -100 159 -174 178 -174 27 0 59 19 51 32 -4 7 6 8 34 3 23 -4 43 -2
46 3 3 6 44 8 100 5 95 -5 154 7 108 21 -12 4 -22 13 -22 20 0 7 -16 31 -35
53 -19 23 -35 44 -35 46 0 3 36 5 80 4 81 -2 88 -5 69 -24 -6 -6 -12 -27 -14
-47 -3 -28 0 -36 13 -38 9 0 22 -2 27 -3 95 -16 118 -16 126 -4 15 25 8 54
-19 77 -67 57 -87 71 -90 62 -5 -14 -22 -12 -22 2 0 7 -19 29 -42 50 l-43 37
32 1 c60 0 167 -64 245 -148 l48 -51 46 49 c44 46 117 89 177 104 22 5 27 3
27 -13 0 -13 -6 -19 -17 -19 -23 2 -143 -52 -143 -64 0 -5 -3 -7 -7 -5 -5 3
-9 -11 -10 -32 l-2 -36 24 28 c30 34 43 35 21 2 -23 -35 -21 -58 4 -50 11 4
20 3 19 -2 -4 -25 1 -37 13 -25 9 9 14 7 24 -6 11 -14 15 -15 23 -3 7 11 10
10 18 -4 6 -11 13 -13 17 -7 3 5 15 8 26 5 13 -3 20 0 20 8 1 10 5 9 14 -4 9
-11 17 -14 20 -8 4 6 20 3 43 -10 19 -11 38 -17 41 -14 3 3 14 -3 24 -12 17
-15 20 -15 28 -3 6 8 10 11 10 5 0 -5 5 -3 10 5 8 11 9 7 4 -15 l-7 -30 27 28
26 28 0 -27 c0 -27 0 -27 21 -8 15 14 20 15 17 4 -2 -11 6 -15 27 -15 35 0 36
-18 2 -46 -22 -18 -22 -18 31 -19 l52 0 0 695 0 695 -2500 0 -2500 0 0 -672z
m1370 422 c0 -16 -8 -19 -62 -22 -49 -2 -64 -7 -66 -19 -3 -14 4 -16 41 -12
36 4 48 1 72 -20 63 -54 22 -147 -66 -147 -45 0 -94 21 -102 45 -8 18 34 21
62 4 23 -15 67 -4 75 17 18 46 -28 77 -70 49 -15 -10 -33 -13 -46 -9 -18 5
-20 11 -14 51 3 25 6 54 6 64 0 17 9 19 85 19 78 0 85 -2 85 -20z m310 0 c0
-16 -7 -20 -35 -20 l-35 0 0 -100 0 -100 -30 0 -30 0 0 100 0 100 -30 0 c-23
0 -30 4 -30 20 0 19 7 20 95 20 88 0 95 -1 95 -20z m70 0 c0 -15 -7 -20 -25
-20 -18 0 -25 5 -25 20 0 15 7 20 25 20 18 0 25 -5 25 -20z m1770 0 c0 -14 -7
-20 -23 -20 -13 0 -26 3 -30 6 -12 12 6 34 29 34 17 0 24 -6 24 -20z m200 -99
l0 -119 -64 -1 c-74 0 -95 15 -102 76 -4 27 1 47 16 72 19 30 25 33 60 29 39
-3 40 -3 40 29 0 29 3 33 25 33 l25 0 0 -119z m-1970 -31 c0 -89 0 -90 -25
-90 -25 0 -25 1 -25 90 0 89 0 90 25 90 25 0 25 -1 25 -90z m190 70 c14 -14
20 -34 20 -68 0 -63 -27 -96 -76 -90 -33 4 -34 3 -34 -29 0 -30 -3 -33 -30
-33 l-30 0 0 119 0 119 65 1 c52 0 70 -4 85 -19z m176 -1 l19 -21 -49 3 c-64
5 -72 -15 -12 -30 64 -16 83 -54 46 -91 -29 -29 -102 -28 -132 3 l-23 22 24 3
c13 2 35 -2 48 -9 17 -9 26 -10 34 -2 15 15 2 33 -24 33 -56 0 -85 54 -50 92
24 26 94 25 119 -3z m295 0 c13 -13 19 -33 19 -67 0 -63 -27 -96 -76 -90 -33
4 -34 3 -34 -29 0 -30 -3 -33 -30 -33 l-30 0 0 119 0 119 66 0 c52 0 70 -4 85
-19z m191 9 c12 -10 18 -33 20 -90 l3 -76 -72 0 c-57 -1 -74 3 -88 18 -36 40
6 90 75 90 19 0 30 5 30 14 0 21 -34 29 -64 15 -21 -10 -29 -10 -39 0 -31 32
96 59 135 29z m168 -9 c0 -10 -4 -19 -9 -19 -25 0 -41 -34 -41 -86 0 -51 -1
-54 -25 -54 -25 0 -25 1 -25 89 l0 90 50 -1 c42 0 50 -3 50 -19z m162 9 c12
-9 17 -35 20 -90 l5 -77 -72 0 c-59 0 -76 3 -90 19 -37 41 3 90 76 90 18 0 29
5 29 14 0 19 -39 31 -53 17 -14 -14 -44 -14 -53 1 -19 31 102 54 138 26z m288
-8 c11 -11 20 -24 20 -30 0 -17 -42 -11 -55 7 -20 27 -45 0 -45 -47 0 -47 25
-74 45 -47 13 18 55 24 55 7 0 -23 -41 -50 -75 -50 -78 0 -113 102 -55 160 27
27 84 26 110 0z m100 -49 c0 -74 9 -91 34 -65 11 10 16 34 16 75 0 56 1 59 25
59 25 0 25 -1 25 -89 l0 -89 -65 -1 c-82 0 -95 14 -95 111 l0 68 30 0 30 0 0
-69z m200 -21 c0 -89 0 -90 -24 -90 -23 0 -25 5 -31 63 -5 50 -4 88 4 115 1 1
12 2 26 2 25 0 25 -1 25 -90z m384 74 c11 -10 16 -34 16 -74 0 -32 3 -65 6
-73 5 -13 -7 -16 -69 -16 -61 0 -78 3 -92 19 -37 41 3 90 76 90 18 0 29 5 29
14 0 19 -39 31 -53 17 -14 -14 -44 -14 -53 1 -21 33 108 54 140 22z m166 -5
c0 -10 -4 -19 -9 -19 -25 0 -41 -34 -41 -86 0 -52 -1 -54 -27 -54 l-28 0 3 89
3 90 50 -1 c41 0 49 -3 49 -19z m-2322 -346 c-2 -10 -13 -19 -26 -21 -17 -3
-22 2 -22 17 0 16 6 21 26 21 19 0 25 -5 22 -17z m632 -102 l0 -119 -64 -1
c-73 0 -93 14 -102 71 -11 67 38 120 96 105 17 -4 20 0 20 29 0 30 3 34 25 34
l25 0 0 -119z m1095 94 c14 -13 25 -33 25 -45 0 -38 -44 -70 -95 -70 l-45 0 0
-50 c0 -47 -2 -50 -25 -50 l-25 0 0 120 0 120 70 0 c62 0 74 -3 95 -25z m215
5 c0 -18 -7 -20 -55 -20 -52 0 -55 -1 -55 -25 0 -23 4 -25 45 -25 38 0 45 -3
45 -20 0 -17 -7 -20 -45 -20 -45 0 -45 0 -45 -35 l0 -35 60 0 c53 0 60 -2 60
-20 0 -18 -7 -20 -85 -20 l-85 0 0 120 0 120 80 0 c73 0 80 -2 80 -20z m194
-7 c31 -30 31 -57 0 -61 -14 -2 -27 6 -38 22 -21 33 -41 33 -62 1 -19 -30 -14
-99 9 -122 18 -19 54 -9 62 16 4 13 12 17 30 13 29 -5 29 -6 13 -35 -18 -34
-40 -46 -84 -47 -95 0 -136 128 -68 210 35 41 98 43 138 3z m216 7 c0 -18 -7
-20 -55 -20 -52 0 -55 -1 -55 -25 0 -23 4 -25 45 -25 38 0 45 -3 45 -20 0 -17
-7 -20 -45 -20 -45 0 -45 0 -45 -35 l0 -35 60 0 c53 0 60 -2 60 -20 0 -18 -7
-20 -85 -20 l-85 0 0 120 0 120 80 0 c73 0 80 -2 80 -20z m180 2 c13 -11 20
-24 16 -30 -9 -15 -39 -15 -53 -1 -15 15 -63 3 -63 -16 0 -8 17 -19 43 -25 67
-18 87 -35 87 -75 0 -44 -37 -75 -92 -75 -71 0 -137 52 -83 66 16 4 30 0 40
-10 21 -20 59 -21 75 -1 18 22 -2 42 -51 50 -39 7 -79 43 -79 72 0 8 11 25 25
38 30 31 101 35 135 7z m-2530 -134 c0 -112 -12 -142 -58 -146 -24 -2 -32 1
-32 12 0 9 6 16 14 16 21 0 26 23 26 121 0 88 0 89 25 89 25 0 25 0 25 -92z
m185 67 c19 -18 25 -35 25 -65 0 -55 -34 -90 -88 -90 -53 0 -87 36 -87 92 0
78 95 118 150 63z m165 4 c0 -11 -4 -19 -9 -19 -25 0 -41 -34 -41 -86 0 -51
-1 -54 -25 -54 -25 0 -25 1 -25 89 l0 89 50 0 c42 0 50 -3 50 -19z m459 -5
c12 -15 21 -37 21 -50 0 -22 -4 -24 -55 -24 -47 0 -55 -3 -55 -19 0 -10 7 -21
15 -25 18 -6 45 2 45 15 0 5 11 9 25 9 31 0 31 -7 3 -37 -28 -30 -89 -32 -118
-3 -60 60 -23 160 59 160 31 0 44 -6 60 -26z m-2360 -280 c0 11 4 17 7 14 3
-3 1 -21 -4 -39 l-8 -34 -11 32 c-6 17 -9 42 -5 55 6 21 7 19 13 -12 3 -19 7
-26 8 -16z m33 -36 c-8 -8 -9 -4 -5 13 4 13 8 18 11 10 2 -7 -1 -18 -6 -23z
m19 -15 c-12 -20 -14 -14 -5 12 4 9 9 14 11 11 3 -2 0 -13 -6 -23z m-207 -168
c4 -13 2 -14 -14 -5 -23 13 -26 20 -6 20 8 0 16 -7 20 -15z"/>
<path d="M3622 2528 c-17 -17 -15 -83 3 -98 12 -10 18 -10 30 0 27 22 15 110
-15 110 -3 0 -11 -5 -18 -12z"/>
<path d="M1863 2533 c-19 -7 -16 -88 3 -104 32 -26 58 46 34 92 -11 19 -16 21
-37 12z"/>
<path d="M2333 2533 c-19 -7 -16 -88 3 -104 32 -26 58 46 34 92 -11 19 -16 21
-37 12z"/>
<path d="M2528 2473 c-22 -6 -30 -29 -13 -43 19 -16 55 4 55 30 0 20 -8 22
-42 13z"/>
<path d="M2855 2466 c-18 -13 -16 -46 4 -46 14 0 41 30 41 46 0 18 -21 18 -45
0z"/>
<path d="M3828 2469 c-20 -11 -24 -34 -8 -44 16 -10 50 14 50 35 0 22 -15 25
-42 9z"/>
<path d="M2282 2118 c-17 -17 -15 -83 3 -98 12 -10 18 -10 30 0 27 22 15 110
-15 110 -3 0 -11 -5 -18 -12z"/>
<path d="M3360 2150 c0 -25 4 -30 24 -30 37 0 56 10 56 30 0 20 -19 30 -56 30
-20 0 -24 -5 -24 -30z"/>
<path d="M1851 2116 c-17 -21 -10 -87 11 -100 25 -16 43 6 43 55 0 51 -29 75
-54 45z"/>
<path d="M2483 2123 c-26 -10 -13 -33 17 -33 32 0 37 9 18 28 -13 13 -16 13
-35 5z"/>
<path d="M1385 2090 c-4 -6 -11 -8 -16 -5 -5 4 -9 -2 -9 -12 0 -13 8 -19 25
-21 21 -1 25 3 25 23 0 25 -14 33 -25 15z"/>
<path d="M3000 2065 c0 -8 5 -15 11 -15 5 0 7 4 4 10 -4 6 1 7 11 3 11 -4 13
-8 6 -11 -20 -6 -14 -22 9 -22 11 0 29 -5 40 -10 13 -8 19 -7 19 0 0 6 6 8 13
4 8 -5 7 -2 -2 9 -8 10 -21 17 -30 15 -9 -1 -27 5 -41 15 -30 21 -40 22 -40 2z"/>
<path d="M3152 1993 c-6 -2 -10 -9 -6 -14 8 -14 21 -11 21 6 0 8 -1 15 -1 14
-1 0 -7 -3 -14 -6z"/>
<path d="M1200 1965 c0 -8 4 -15 9 -15 5 0 14 7 21 15 10 13 9 15 -9 15 -12 0
-21 -6 -21 -15z"/>
<path d="M680 1776 c0 -35 15 -40 39 -14 28 30 26 38 -9 38 -25 0 -30 -4 -30
-24z"/>
<path d="M683 1563 c-21 -3 -30 -9 -27 -17 3 -9 -11 -18 -43 -26 -26 -8 -54
-20 -61 -27 -7 -7 -19 -13 -25 -14 -7 -1 -29 -2 -50 -3 -47 -3 -56 -12 -31
-31 18 -13 17 -14 -11 -10 -79 12 -129 26 -155 45 -29 21 -55 18 -90 -12 -20
-17 -51 -98 -43 -111 9 -14 16 -63 16 -104 0 -23 6 -35 19 -39 21 -6 18 -31
-2 -26 -7 2 -17 -3 -22 -10 -6 -10 -10 -10 -18 2 -8 12 -12 12 -18 2 -5 -7
-16 -10 -25 -6 -11 4 -17 1 -17 -7 -1 -9 -6 -7 -17 6 -15 20 -15 20 -10 -3 4
-16 -1 -30 -15 -44 -29 -29 -16 -44 41 -52 29 -4 51 -12 51 -19 1 -7 6 -5 14
5 7 10 15 15 18 12 3 -3 26 23 51 58 25 35 62 79 82 98 19 19 44 44 55 54 12
12 20 15 20 7 0 -7 4 -10 8 -7 5 3 21 -2 37 -10 16 -8 33 -13 39 -10 7 3 6 5
-1 5 -7 1 -13 5 -13 11 0 6 10 5 25 -2 21 -9 28 -8 45 7 11 10 20 24 20 30 0
7 10 16 23 19 21 7 21 7 2 15 -17 7 -16 9 13 16 24 5 32 11 28 22 -4 9 1 17
14 20 22 6 28 23 8 23 -7 0 -3 7 9 15 12 8 28 13 35 10 8 -3 25 -1 39 4 22 9
21 10 -16 12 -22 1 -44 1 -48 0 -5 -1 -5 4 -1 10 5 8 -1 10 -19 7 -15 -3 -24
-1 -21 4 3 5 27 6 54 2 46 -6 49 -5 45 15 -2 13 3 25 15 31 26 14 43 13 34 -2
-5 -9 -2 -8 10 1 13 11 14 16 4 22 -13 9 -18 9 -75 2z m-199 -118 c-4 -8 -8
-15 -10 -15 -2 0 -4 7 -4 15 0 8 4 15 10 15 5 0 7 -7 4 -15z"/>
<path d="M4876 1505 c-3 -8 -16 -15 -28 -15 -21 -1 -22 -1 -4 -11 14 -9 22 -7
38 9 12 11 16 22 10 26 -5 3 -12 -1 -16 -9z"/>
<path d="M645 1430 c-3 -5 -1 -10 4 -10 6 0 11 5 11 10 0 6 -2 10 -4 10 -3 0
-8 -4 -11 -10z"/>
<path d="M4987 1402 c-5 -7 -13 -10 -18 -6 -5 3 -15 1 -22 -4 -7 -5 -19 -10
-27 -11 -8 0 -40 -3 -70 -5 -71 -6 -116 -15 -153 -31 -9 -4 -29 -4 -43 -1 -22
6 -25 4 -19 -13 3 -11 1 -22 -5 -26 -5 -3 -10 1 -10 10 0 25 -23 12 -25 -13
-2 -29 -15 -41 -15 -14 0 13 -6 22 -16 22 -11 0 -14 -7 -10 -30 2 -16 0 -30
-5 -30 -5 0 -9 9 -9 19 0 10 -7 21 -15 25 -13 4 -14 -1 -9 -34 5 -32 3 -40 -9
-40 -10 0 -13 6 -10 18 2 10 -3 24 -12 32 -21 17 -29 7 -15 -20 7 -12 10 -33
7 -46 -3 -20 -2 -22 9 -13 11 9 15 5 20 -19 7 -35 34 -52 34 -22 0 11 -4 20
-10 20 -5 0 -10 9 -10 20 0 28 17 25 24 -5 6 -22 22 -30 48 -26 13 2 48 -32
48 -46 0 -7 7 -13 15 -13 20 0 19 10 -2 26 -10 7 -15 16 -11 20 13 12 38 -17
39 -45 0 -25 1 -25 11 -4 15 32 66 36 85 6 8 -12 22 -23 29 -23 8 0 14 -4 14
-8 0 -5 -13 -7 -30 -4 -16 2 -30 8 -30 13 0 12 -40 2 -60 -16 -22 -20 -42 -19
-38 3 2 13 -3 16 -22 13 -14 -1 -28 -8 -31 -13 -4 -7 -14 -6 -27 1 -14 8 -23
8 -27 1 -5 -8 -12 -7 -22 1 -12 10 -16 10 -24 -2 -5 -8 -9 -22 -9 -31 0 -9 -4
-20 -10 -23 -6 -4 -10 8 -10 30 0 30 -2 34 -14 23 -10 -9 -11 -15 -2 -20 7 -5
6 -11 -6 -20 -9 -7 -23 -26 -29 -43 l-13 -30 -4 27 c-2 18 -8 25 -17 22 -11
-4 -12 -12 -4 -32 12 -32 5 -51 -18 -47 -10 1 -28 -3 -40 -11 -16 -10 -24 -11
-29 -2 -5 7 -11 6 -20 -7 -8 -11 -20 -15 -31 -11 -12 4 -10 -1 7 -15 l25 -21
-48 6 c-37 4 -49 2 -53 -9 -4 -8 -10 -13 -15 -10 -4 3 -13 -3 -18 -14 -14 -26
-14 -31 3 -25 8 3 16 -3 19 -15 4 -17 10 -20 36 -15 32 7 44 -9 16 -20 -25 -9
-18 -28 8 -20 l22 6 -21 -23 c-12 -13 -24 -31 -27 -39 -3 -9 -6 -10 -6 -2 -1
6 -8 12 -17 12 -8 0 -12 5 -9 10 3 6 -1 10 -10 10 -27 0 -29 -30 -3 -56 23
-24 25 -24 56 -8 30 14 35 14 56 0 25 -16 41 -15 163 6 35 5 61 14 58 18 -5 9
7 14 63 25 17 4 32 13 32 20 0 7 7 15 15 19 40 15 5 22 -97 19 l-113 -3 -1 29
c-1 21 3 28 12 24 8 -3 14 -9 14 -14 0 -17 122 -10 142 7 14 13 21 14 32 5 11
-9 37 -4 122 25 60 20 116 40 125 45 20 10 42 -10 31 -28 -4 -6 -32 -19 -62
-28 -90 -28 -112 -38 -100 -45 6 -4 -1 -12 -17 -19 -24 -11 -25 -14 -11 -22
43 -24 218 20 218 55 0 7 9 21 19 30 16 15 22 15 40 4 12 -7 21 -16 21 -20 0
-5 6 -8 13 -8 6 1 2 9 -11 20 -21 17 -15 39 8 25 6 -4 10 8 10 30 l0 36 -37
-6 -38 -6 27 24 c15 14 32 27 38 29 7 2 10 76 8 238 -2 129 -7 229 -11 222z
m-140 -308 c-3 -3 -12 -4 -19 -1 -8 3 -5 6 6 6 11 1 17 -2 13 -5z m-397 -144
c0 -5 -5 -10 -11 -10 -5 0 -7 5 -4 10 3 6 8 10 11 10 2 0 4 -4 4 -10z m-95
-111 c11 -17 -1 -21 -15 -4 -8 9 -8 15 -2 15 6 0 14 -5 17 -11z"/>
<path d="M3320 1261 c0 -12 6 -21 15 -21 8 0 15 4 15 9 0 5 -7 14 -15 21 -13
10 -15 9 -15 -9z"/>
<path d="M4430 1242 c0 -12 19 -26 26 -19 2 2 -2 10 -11 17 -9 8 -15 8 -15 2z"/>
<path d="M2630 1183 c0 -6 8 -17 18 -24 16 -13 16 -13 2 6 -8 11 -16 22 -17
24 -2 2 -3 0 -3 -6z"/>
<path d="M4470 1159 c0 -5 5 -7 10 -4 6 3 10 8 10 11 0 2 -4 4 -10 4 -5 0 -10
-5 -10 -11z"/>
<path d="M2175 1150 c-3 -5 -20 -10 -36 -10 -18 0 -28 -4 -24 -10 10 -15 31
-12 56 10 13 10 21 19 17 20 -4 0 -10 -4 -13 -10z"/>
<path d="M3490 1149 c0 -5 5 -7 10 -4 6 3 10 8 10 11 0 2 -4 4 -10 4 -5 0 -10
-5 -10 -11z"/>
<path d="M4432 1140 c7 -10 14 -18 15 -16 6 6 -9 36 -18 36 -5 0 -4 -9 3 -20z"/>
<path d="M392 1113 c-18 -24 -23 -26 -31 -13 -6 8 -11 13 -12 10 -7 -44 -7
-68 1 -80 8 -13 11 -13 25 1 9 9 18 29 20 44 1 15 10 32 19 37 9 5 16 13 16
18 0 18 -16 10 -38 -17z"/>
<path d="M3530 1126 c0 -2 14 -19 30 -37 17 -19 38 -50 47 -69 15 -31 17 -33
20 -13 3 13 -8 45 -23 73 -21 38 -33 50 -51 50 -12 0 -23 -2 -23 -4z"/>
<path d="M4392 1116 c7 -8 15 -12 17 -11 5 6 -10 25 -20 25 -5 0 -4 -6 3 -14z"/>
<path d="M4550 1100 c0 -5 5 -10 11 -10 5 0 7 5 4 10 -3 6 -8 10 -11 10 -2 0
-4 -4 -4 -10z"/>
<path d="M287 1083 c-4 -6 0 -13 8 -17 8 -3 17 0 21 6 4 6 3 8 -4 4 -5 -3 -12
-1 -14 6 -3 8 -6 9 -11 1z"/>
<path d="M430 1070 c0 -24 25 -27 34 -4 3 8 2 12 -4 9 -6 -3 -10 -1 -10 4 0 6
-4 11 -10 11 -5 0 -10 -9 -10 -20z"/>
<path d="M1880 1080 c0 -5 5 -10 10 -10 6 0 10 5 10 10 0 6 -4 10 -10 10 -5 0
-10 -4 -10 -10z"/>
<path d="M4398 1053 c5 -21 7 -23 10 -9 2 10 0 22 -6 28 -6 6 -7 0 -4 -19z"/>
<path d="M2006 986 c-4 -16 -22 -31 -53 -46 -44 -21 -46 -23 -28 -36 22 -16
45 -18 45 -5 0 6 8 10 18 10 9 1 26 2 37 2 29 1 196 -21 206 -27 12 -7 11 9
-1 41 -8 22 -7 25 7 23 28 -5 26 20 -4 35 -18 10 -58 15 -114 15 -48 0 -91 2
-97 6 -5 3 -13 -5 -16 -18z"/>
<path d="M3416 975 c-10 -26 -7 -63 5 -67 14 -5 -3 -45 -35 -81 -20 -24 -23
-33 -15 -54 13 -34 12 -36 -16 -29 -30 8 -31 3 -4 -41 31 -49 106 -71 138 -40
10 10 12 6 9 -21 -1 -18 2 -36 7 -40 6 -4 11 -25 13 -47 4 -46 8 -53 24 -37 6
6 13 42 14 79 5 102 12 133 29 126 8 -3 15 -11 15 -19 0 -8 5 -14 10 -14 6 0
10 -7 10 -15 0 -8 -4 -15 -10 -15 -5 0 -10 -8 -10 -17 0 -9 -8 -25 -17 -35
-20 -22 -11 -33 34 -43 28 -5 32 -4 27 9 -3 9 -2 16 3 16 6 0 10 14 11 31 0
17 6 37 13 45 6 8 9 17 5 21 -3 3 -6 1 -6 -5 0 -15 -26 -16 -35 -2 -3 6 6 15
20 20 25 9 26 13 20 57 -7 55 -36 153 -46 153 -3 0 -19 12 -35 27 -17 15 -48
30 -74 35 -25 5 -57 11 -71 14 -19 4 -28 1 -33 -11z"/>
<path d="M4344 979 c-3 -6 -1 -16 5 -22 8 -8 11 -5 11 11 0 24 -5 28 -16 11z"/>
<path d="M3064 968 c-4 -6 0 -16 9 -23 20 -14 22 -29 5 -22 -7 2 -19 -10 -26
-27 -9 -20 -10 -32 -2 -34 20 -7 10 -20 -12 -17 -44 7 -53 8 -75 7 -13 -1 -23
-7 -23 -13 0 -7 12 -9 35 -5 31 6 75 -8 75 -25 0 -3 -26 -5 -57 -3 -43 2 -59
7 -61 18 -2 9 -8 16 -13 16 -12 0 -11 -7 2 -32 8 -15 8 -23 -2 -32 -9 -8 -10
-8 -6 0 4 7 0 17 -8 24 -12 10 -17 7 -26 -16 -27 -70 -28 -71 -28 -44 -1 14 8
40 19 58 21 34 17 34 -31 1 -23 -16 -28 -17 -45 -4 -18 14 -18 16 -2 28 11 9
16 23 13 37 -6 33 -12 35 -36 14 -20 -18 -22 -18 -34 -1 -16 22 -27 22 -55 -3
-19 -16 -26 -18 -38 -8 -8 7 -27 13 -42 13 -15 0 -34 5 -41 11 -8 6 -29 10
-46 10 -23 -1 -33 4 -33 14 0 13 -1 13 -10 0 -6 -10 -26 -15 -57 -15 -39 0
-48 -3 -47 -18 1 -9 -2 -17 -7 -17 -5 0 -9 5 -9 12 0 9 -3 9 -11 1 -6 -6 -11
-27 -11 -47 0 -19 -6 -40 -14 -47 -8 -6 -14 -21 -14 -33 0 -17 2 -18 10 -6 9
13 11 13 20 0 15 -23 12 -33 -10 -27 -33 8 -35 -13 -4 -38 34 -27 79 -26 141
1 51 24 109 18 153 -15 43 -32 50 -41 43 -57 -5 -13 32 -56 41 -47 3 3 -1 21
-9 40 -19 44 -19 48 0 33 12 -10 22 -10 39 -2 20 9 27 8 38 -8 7 -11 20 -20
28 -22 8 -2 18 -7 21 -12 11 -15 29 4 29 30 0 30 3 30 41 2 28 -21 33 -21 99
-10 38 6 89 22 115 34 44 21 45 23 39 58 -8 43 -7 41 -24 30 -11 -7 -11 -11
-1 -24 12 -14 10 -16 -8 -16 -13 0 -19 4 -16 10 4 6 4 29 0 52 -5 29 -10 37
-16 27 -5 -8 -9 -9 -9 -4 0 24 18 36 43 29 15 -3 27 -10 27 -16 0 -5 9 -6 20
-3 14 4 20 2 20 -8 0 -7 14 -26 30 -40 17 -15 30 -35 30 -45 1 -16 1 -16 11 1
12 21 -5 74 -30 93 -9 7 -10 13 -3 18 6 4 -13 28 -46 58 -31 29 -58 53 -59 54
-2 0 1 15 6 32 9 30 8 32 -14 32 -13 0 -27 -5 -31 -12z m-67 -184 c-3 -3 -12
-4 -19 -1 -8 3 -5 6 6 6 11 1 17 -2 13 -5z m-150 -126 c-3 -8 -6 -5 -6 6 -1
11 2 17 5 13 3 -3 4 -12 1 -19z m129 -8 c3 0 4 6 1 13 -4 10 2 13 21 9 24 -5
24 -6 7 -18 -10 -8 -25 -14 -33 -14 -20 0 -52 19 -52 32 0 6 10 4 25 -6 13 -9
27 -16 31 -16z m-186 0 c0 -5 -5 -10 -11 -10 -5 0 -7 5 -4 10 3 6 8 10 11 10
2 0 4 -4 4 -10z"/>
<path d="M4175 921 c-3 -5 -1 -12 5 -16 5 -3 10 1 10 9 0 18 -6 21 -15 7z"/>
<path d="M1423 872 c-1 -21 6 -49 17 -67 17 -27 17 -36 6 -96 -7 -36 -20 -76
-29 -89 -16 -24 -16 -25 10 -47 14 -13 36 -23 48 -23 11 0 25 -4 31 -9 5 -6
10 -1 10 14 1 14 18 40 39 60 27 25 33 35 21 35 -19 0 -15 29 10 64 9 13 10
24 4 31 -6 7 -3 23 9 46 10 19 22 49 26 68 l7 34 -38 -6 c-22 -4 -55 -7 -74
-7 -31 0 -36 -3 -38 -27 -3 -35 -12 -44 -12 -11 0 13 -10 34 -22 46 l-23 21
-2 -37z"/>
<path d="M6 893 c-3 -3 -6 -206 -6 -450 l0 -443 254 0 c249 0 254 0 249 20 -3
11 -10 20 -17 20 -6 0 -2 7 8 15 11 8 15 15 8 15 -15 0 -73 -35 -68 -41 2 -2
-10 -5 -27 -5 -18 -1 -63 -5 -102 -8 -68 -5 -69 -5 -30 8 22 7 41 18 41 24 1
7 2 16 3 21 0 5 12 12 26 15 29 7 34 26 6 26 -14 0 -17 6 -14 25 5 22 23 34
60 41 6 1 19 7 30 13 15 9 12 10 -19 11 -40 0 -52 18 -18 27 11 3 20 9 20 13
0 5 -9 6 -20 3 -14 -4 -20 0 -20 11 0 11 9 16 33 16 24 0 28 3 17 10 -8 5 -32
10 -52 10 -38 0 -38 0 -38 40 0 23 -7 55 -16 72 -23 44 -14 109 24 189 36 76
38 83 17 75 -10 -4 -19 3 -27 19 -15 33 4 77 53 119 l39 33 -24 22 c-23 21
-27 22 -115 12 -49 -5 -98 -14 -108 -20 -10 -5 -36 -38 -56 -74 -21 -35 -51
-77 -68 -92 l-29 -29 -1 40 c-3 69 3 118 16 151 13 30 12 34 -4 43 -10 5 -21
6 -25 3z"/>
<path d="M1020 890 c0 -7 8 -23 17 -34 14 -17 12 -16 -9 2 l-26 24 -18 -27
c-15 -23 -16 -34 -7 -67 9 -32 8 -42 -6 -55 -15 -15 -13 -16 17 -10 27 5 30 4
20 -7 -7 -7 -21 -11 -32 -8 -13 3 -17 1 -12 -6 4 -7 2 -12 -4 -12 -6 0 -5 -11
5 -29 13 -27 18 -29 52 -24 21 3 48 12 60 19 12 8 31 14 42 14 13 0 18 5 15
13 -3 9 -22 14 -49 14 -25 0 -47 2 -50 5 -3 3 8 20 25 38 20 22 28 26 25 14
-3 -11 2 -4 11 14 10 17 21 32 26 32 5 0 3 10 -3 23 -7 12 -11 24 -10 27 1 2
-3 6 -11 8 -10 3 -10 2 1 -6 11 -8 11 -10 0 -14 -8 -3 -29 11 -46 31 -18 19
-33 29 -33 21z"/>
<path d="M2064 881 c8 -12 75 -35 83 -28 6 7 -24 22 -60 31 -18 4 -26 3 -23
-3z"/>
<path d="M790 855 c-11 -28 -39 -59 -63 -68 -9 -3 -17 -11 -17 -16 0 -13 -31
-23 -44 -13 -14 12 -99 32 -105 26 -3 -3 -6 -35 -8 -72 -1 -37 1 -58 4 -47 5
16 9 12 18 -20 8 -27 23 -47 46 -63 19 -12 42 -29 51 -37 24 -20 52 -23 53 -5
0 8 4 16 8 17 5 1 15 10 24 20 11 14 16 15 20 5 4 -10 9 -8 19 7 11 15 13 34
8 69 -3 27 -2 52 2 55 8 4 9 73 4 150 -2 24 -9 21 -20 -8z m-5 -225 c3 -5 1
-10 -4 -10 -6 0 -11 5 -11 10 0 6 2 10 4 10 3 0 8 -4 11 -10z"/>
<path d="M3755 796 l-50 -53 5 -62 5 -61 37 26 c25 18 38 36 42 59 4 18 13 36
21 39 8 3 15 12 15 21 0 8 4 15 10 15 5 0 7 -8 4 -17 -4 -13 -3 -15 4 -5 19
27 -4 93 -32 91 -6 0 -34 -24 -61 -53z"/>
<path d="M2100 811 c0 -11 49 -21 55 -11 3 4 -5 10 -18 14 -30 8 -37 7 -37 -3z"/>
<path d="M843 774 c-3 -8 -3 -40 0 -70 3 -33 2 -52 -4 -48 -5 3 -7 10 -4 15 4
5 1 9 -4 9 -18 0 -12 -43 9 -70 11 -14 20 -37 20 -52 0 -29 12 -40 46 -44 l23
-2 -22 24 c-48 54 -73 125 -27 76 23 -25 76 -31 67 -8 -3 8 -11 42 -18 75 -6
34 -16 64 -20 67 -5 3 -9 14 -9 25 0 24 -48 27 -57 3z"/>
<path d="M4992 753 c-1 -7 -18 -33 -37 -59 -41 -53 -49 -89 -13 -58 20 18 21
18 15 1 -4 -10 -7 -22 -7 -27 0 -5 -15 -24 -33 -44 -27 -28 -36 -33 -47 -23
-9 8 -11 9 -6 0 3 -6 -3 -28 -15 -48 -12 -20 -19 -38 -16 -41 7 -7 47 27 47
41 0 5 16 27 35 48 19 21 37 47 40 58 4 10 10 19 14 19 16 0 32 58 28 101 -2
24 -4 38 -5 32z"/>
<path d="M1087 720 c-9 -11 -13 -20 -7 -20 5 0 14 9 20 20 6 11 9 20 8 20 -2
0 -11 -9 -21 -20z"/>
<path d="M1841 704 c-11 -15 -21 -32 -21 -38 0 -6 6 -2 12 9 6 11 17 26 26 32
9 7 13 15 10 18 -3 4 -15 -6 -27 -21z"/>
<path d="M423 571 c-63 -130 -69 -153 -53 -191 10 -24 19 -30 42 -30 36 0 27
19 -10 21 l-27 2 25 5 c23 4 24 5 5 12 -19 7 -18 8 5 14 34 9 61 73 66 156 3
36 7 75 9 87 12 55 -15 22 -62 -76z"/>
<path d="M2098 627 c-60 -38 -69 -47 -84 -92 -23 -70 -47 -100 -110 -140 -131
-84 -239 -123 -289 -105 -14 5 -25 1 -37 -13 -10 -11 -18 -23 -18 -27 0 -13
29 -32 38 -26 12 7 124 -32 137 -48 6 -6 26 -20 46 -29 56 -26 73 -86 37 -124
l-21 -23 618 0 c468 0 616 3 607 12 -8 8 -2 19 25 44 44 40 93 50 154 30 66
-21 138 -33 197 -30 36 1 52 -2 49 -9 -2 -7 -11 -12 -20 -12 -9 0 -24 -8 -33
-17 -15 -15 -3 -16 155 -17 94 -1 171 2 171 6 0 4 -9 21 -20 38 -24 36 -25 55
-5 55 8 0 15 4 15 10 0 5 11 12 25 16 14 3 25 11 25 16 0 6 -7 8 -15 4 -8 -3
-15 -2 -15 2 0 10 -87 72 -100 72 -13 0 -13 27 0 32 12 4 1 48 -12 48 -6 0 -8
-7 -4 -15 10 -27 -9 -15 -29 17 -28 49 -58 75 -80 71 -11 -2 -52 -4 -91 -5
-64 -2 -74 1 -118 30 -26 18 -49 32 -51 32 -2 0 -5 -10 -7 -22 -2 -17 -10 -23
-28 -23 -35 0 -43 5 -29 21 9 11 8 14 -6 14 -9 0 -19 -9 -22 -19 -3 -13 -10
-18 -21 -13 -15 5 -15 3 1 -22 10 -15 16 -30 14 -33 -10 -10 -126 -12 -132 -3
-3 6 -18 10 -33 10 -20 0 -23 3 -13 9 11 7 7 10 -15 13 -31 4 -26 8 36 26 34
11 34 11 -12 6 -130 -12 -139 -14 -133 -35 7 -22 -13 -26 -21 -4 -4 8 -11 15
-17 15 -5 0 -34 16 -63 35 -29 19 -57 35 -62 35 -6 0 -19 -12 -30 -27 l-20
-27 3 27 c7 59 -56 25 -153 -82 -44 -48 -97 -95 -133 -116 -66 -38 -74 -41
-63 -23 4 7 -4 4 -17 -8 -25 -21 -77 -44 -144 -65 -22 -6 -51 -17 -65 -24 -14
-7 -41 -15 -60 -19 -30 -5 -27 -3 15 14 71 29 96 43 90 49 -3 3 5 11 17 18 21
11 22 12 3 13 -13 0 0 11 35 31 30 16 59 35 65 41 5 6 -6 2 -25 -9 -19 -12
-46 -24 -60 -27 l-25 -7 23 17 c12 9 22 22 22 30 0 7 12 21 28 29 25 15 16 14
-25 -2 -15 -6 -16 -4 -6 9 7 8 10 17 8 20 -3 3 9 11 27 18 36 15 108 60 95 60
-4 0 -26 -9 -48 -21 -23 -11 -43 -18 -46 -15 -3 3 2 9 11 12 14 5 15 9 5 15
-9 5 -4 10 17 15 16 4 38 14 49 22 18 13 18 14 2 8 -40 -13 -72 -18 -58 -8 11
8 11 10 0 14 -8 3 5 8 29 11 23 4 42 11 42 16 0 4 -12 6 -27 3 -27 -4 -27 -4
-8 12 20 15 20 15 1 16 -16 0 -17 3 -8 12 18 18 15 28 -9 28 -15 0 -19 5 -15
15 3 8 1 15 -4 15 -6 0 -10 7 -10 15 0 8 -7 15 -16 15 -8 0 -12 4 -9 10 3 5
20 7 37 3 l31 -6 -40 41 c-23 23 -42 42 -44 41 -2 0 -34 -19 -71 -42z m849
-563 c-3 -3 -12 -4 -19 -1 -8 3 -5 6 6 6 11 1 17 -2 13 -5z m608 -44 c-8 -13
-32 -13 -40 0 -4 6 5 10 20 10 15 0 24 -4 20 -10z"/>
<path d="M4065 650 c-3 -5 -17 -10 -31 -10 -14 0 -22 -4 -19 -10 6 -10 -13
-14 -47 -11 -9 1 -22 -7 -27 -18 -15 -27 -14 -28 13 -35 17 -4 23 -11 19 -25
-3 -12 2 -20 16 -24 22 -5 71 12 71 26 0 4 5 7 11 7 7 0 9 -10 7 -25 -6 -29
-1 -31 29 -10 18 13 20 20 13 44 -4 16 -6 32 -3 34 7 7 -26 67 -37 67 -5 0
-12 -4 -15 -10z"/>
<path d="M1778 613 c-32 -39 -78 -141 -78 -175 0 -4 30 13 66 40 49 35 61 48
48 50 -34 6 -45 31 -28 64 18 35 14 46 -8 21z"/>
<path d="M4445 613 c-38 -9 -42 -26 -5 -19 19 3 39 11 44 16 11 11 -3 12 -39
3z"/>
<path d="M2702 579 c2 -7 10 -15 17 -17 8 -3 12 1 9 9 -2 7 -10 15 -17 17 -8
3 -12 -1 -9 -9z"/>
<path d="M760 535 c-14 -8 -19 -14 -12 -15 7 0 10 -4 7 -10 -8 -13 5 -13 25 0
12 8 12 10 1 10 -11 0 -11 3 -1 15 15 18 12 18 -20 0z"/>
<path d="M614 463 c-17 -17 -17 -18 0 -21 20 -4 48 16 40 29 -8 14 -21 11 -40
-8z"/>
<path d="M2895 470 l-30 -8 30 0 c17 0 41 4 55 8 l25 8 -25 0 c-14 0 -38 -4
-55 -8z"/>
<path d="M4480 448 c-19 -5 -89 -36 -155 -68 -66 -32 -137 -65 -157 -73 -39
-16 -54 -44 -18 -32 24 8 60 -11 60 -30 0 -8 5 -15 10 -15 6 0 10 7 10 16 0
14 3 14 15 4 18 -15 75 -22 75 -10 0 5 9 6 19 3 10 -3 40 5 66 16 26 12 53 21
61 21 7 0 15 4 18 9 4 5 -4 7 -16 3 -21 -5 -22 -4 -9 11 7 9 20 17 28 17 8 0
12 4 9 9 -3 5 5 12 19 15 16 4 25 13 25 26 0 12 7 20 17 20 9 0 13 3 10 6 -4
4 3 20 14 35 l20 29 -43 -1 c-24 0 -59 -5 -78 -11z"/>
<path d="M1230 426 c-28 -25 -37 -48 -16 -40 18 7 39 -31 31 -56 -4 -12 2 -27
16 -41 18 -18 29 -21 75 -16 29 3 58 9 64 12 7 4 10 32 8 68 l-3 62 -53 11
c-29 7 -63 14 -75 17 -14 4 -31 -2 -47 -17z"/>
<path d="M4960 441 c0 -6 4 -13 10 -16 6 -3 7 1 4 9 -7 18 -14 21 -14 7z"/>
<path d="M4801 417 c-13 -21 -12 -21 5 -5 10 10 16 20 13 22 -3 3 -11 -5 -18
-17z"/>
<path d="M2988 423 c7 -3 16 -2 19 1 4 3 -2 6 -13 5 -11 0 -14 -3 -6 -6z"/>
<path d="M2830 411 c-28 -6 -31 -8 -15 -13 11 -4 52 -1 90 7 l70 13 -55 0
c-30 -1 -71 -4 -90 -7z"/>
<path d="M3609 355 c20 -37 100 -120 107 -112 5 4 -20 36 -55 70 -35 34 -58
53 -52 42z"/>
<path d="M4832 348 c-5 -7 -19 -49 -31 -92 -16 -58 -19 -82 -11 -90 8 -8 9 -6
5 9 -6 18 -5 18 5 3 11 -19 -1 -55 -24 -70 -6 -4 -7 -10 -2 -15 4 -4 12 0 17
10 7 12 17 16 32 12 16 -5 18 -4 8 3 -15 11 -7 17 35 26 35 8 88 -9 79 -24 -4
-6 -11 -8 -16 -4 -6 3 -27 3 -47 -1 -20 -4 -31 -10 -24 -12 23 -9 12 -20 -15
-16 l-28 5 25 -20 c17 -15 29 -18 42 -11 24 13 28 11 28 -10 0 -12 9 -21 25
-25 14 -4 25 -11 25 -16 0 -6 10 -10 23 -10 18 0 19 2 7 10 -12 8 -13 13 -2
30 7 12 12 56 12 113 l0 93 -80 -1 -80 -1 6 58 c6 59 4 67 -14 46z"/>
<path d="M2274 334 c-18 -14 -18 -15 4 -4 12 6 22 13 22 15 0 8 -5 6 -26 -11z"/>
<path d="M778 296 c-15 -17 -39 -43 -53 -58 -15 -16 -20 -28 -13 -28 27 0 88
21 88 30 0 6 7 10 17 10 15 0 15 -2 -1 -19 -10 -11 -56 -32 -104 -47 -48 -15
-92 -32 -98 -38 -21 -22 -4 -82 21 -72 8 3 19 -2 25 -10 18 -21 51 -17 57 6 3
11 11 20 19 20 7 0 17 6 21 13 4 8 16 17 26 20 10 4 15 11 12 17 -4 6 6 10 22
10 25 0 83 29 61 30 -21 1 87 110 109 110 11 0 13 -3 5 -13 -6 -7 -12 -26 -14
-42 -3 -29 -2 -30 44 -32 60 -2 65 12 25 73 -33 50 -66 65 -105 49 -21 -9 -72
-12 -72 -4 0 11 -42 2 -50 -11 -6 -10 -9 -10 -11 2 -3 11 -11 7 -31 -16z"/>
<path d="M2230 300 c-9 -6 -10 -10 -3 -10 6 0 15 5 18 10 8 12 4 12 -15 0z"/>
<path d="M2350 263 c-32 -33 -37 -41 -17 -28 23 15 75 75 65 75 -2 0 -23 -21
-48 -47z"/>
<path d="M3758 273 c7 -3 16 -2 19 1 4 3 -2 6 -13 5 -11 0 -14 -3 -6 -6z"/>
<path d="M3773 243 c-31 -21 -29 -28 10 -27 51 2 57 3 55 17 -6 29 -32 33 -65
10z"/>
<path d="M4688 217 c-40 -27 -46 -34 -34 -45 18 -18 43 -3 73 44 27 42 21 42
-39 1z"/>
<path d="M1250 178 c-24 -29 -28 -30 -65 -22 -33 8 -42 7 -57 -8 -10 -10 -18
-20 -18 -22 0 -12 62 -26 100 -21 41 4 43 4 26 -10 -11 -8 -23 -15 -28 -15 -4
0 -8 -9 -8 -20 0 -15 7 -20 28 -20 l27 -1 -23 -12 c-12 -7 -19 -16 -16 -20 4
-4 126 -7 271 -7 237 0 263 2 263 16 0 9 -8 22 -17 29 -15 11 -15 13 6 20 l23
7 -23 24 c-12 13 -26 21 -31 18 -5 -3 -8 2 -6 12 3 17 -4 19 -49 19 -42 -1
-53 3 -53 15 0 10 -15 19 -45 26 -43 10 -46 9 -74 -20 -17 -17 -41 -44 -55
-61 -30 -37 -53 -25 -36 19 5 15 10 41 10 57 0 29 0 29 -62 29 -59 0 -65 -2
-88 -32z"/>
<path d="M4723 184 c-12 -26 -12 -26 7 -9 20 18 26 35 13 35 -5 0 -13 -12 -20
-26z"/>
<path d="M825 130 c-3 -5 1 -10 9 -10 9 0 16 5 16 10 0 6 -4 10 -9 10 -6 0
-13 -4 -16 -10z"/>
<path d="M568 93 c7 -3 16 -2 19 1 4 3 -2 6 -13 5 -11 0 -14 -3 -6 -6z"/>
<path d="M1093 75 c-17 -13 -16 -14 9 -15 30 0 46 15 24 23 -8 3 -22 -1 -33
-8z"/>
<path d="M1128 43 c7 -3 16 -2 19 1 4 3 -2 6 -13 5 -11 0 -14 -3 -6 -6z"/>
<path d="M1168 3 c6 -2 18 -2 25 0 6 3 1 5 -13 5 -14 0 -19 -2 -12 -5z"/>
<path d="M3128 3 c7 -3 16 -2 19 1 4 3 -2 6 -13 5 -11 0 -14 -3 -6 -6z"/>
</g>
</svg>
